# Blender 3.3.1
# www.blender.org
mtllib test_obj.mtl
o test
v -0.237055 0.315770 -0.260000
v -0.237055 0.000000 -0.260000
v -0.552825 0.000000 -0.260000
v 0.552825 0.000000 -0.260000
v 0.237055 0.000000 -0.260000
v 0.237055 0.315770 -0.260000
v 0.395395 0.789880 -0.260000
v 0.552825 0.789880 -0.260000
v 0.237055 0.947310 -0.260000
v 0.395395 0.947310 -0.260000
v -0.237055 1.105650 -0.260000
v 0.237055 1.105650 -0.260000
v -0.394485 0.789880 -0.260000
v -0.394485 0.947310 -0.260000
v -0.237055 0.947310 -0.260000
v -0.552825 0.789880 -0.260000
v -0.237055 0.789880 -0.260000
v -0.237055 0.473200 -0.260000
v -0.078715 0.947310 -0.260000
v -0.078715 0.789880 -0.260000
v 0.237055 0.789880 -0.260000
v 0.078715 0.789880 -0.260000
v 0.078715 0.947310 -0.260000
v 0.237055 0.473200 -0.260000
v -0.552825 0.000000 0.000000
v -0.237055 -0.000000 0.000000
v -0.237055 0.315770 0.000000
v 0.237055 0.315770 0.000000
v 0.237055 -0.000000 0.000000
v 0.552825 -0.000000 0.000000
v 0.552825 0.789880 0.000000
v 0.395395 0.789880 0.000000
v 0.395395 0.947310 0.000000
v 0.237055 0.947310 0.000000
v 0.237055 1.105650 0.000000
v -0.237055 1.105650 0.000000
v -0.237055 0.947310 0.000000
v -0.394485 0.947310 0.000000
v -0.394485 0.789880 0.000000
v -0.552825 0.789880 0.000000
v -0.237055 0.473200 0.000000
v -0.237055 0.789880 0.000000
v -0.078715 0.789880 0.000000
v -0.078715 0.947310 0.000000
v 0.078715 0.947310 0.000000
v 0.078715 0.789880 0.000000
v 0.237055 0.789880 0.000000
v 0.237055 0.473200 0.000000
vn -0.0000 -0.0000 -1.0000
vn -0.0000 -0.0000 1.0000
vn 1.0000 -0.0000 -0.0000
vn -0.0000 -1.0000 -0.0000
vn -1.0000 -0.0000 -0.0000
vn -0.0000 1.0000 -0.0000
vt 0.642798 0.142798
vt 0.352734 0.857202
vt 0.470312 0.500000
vt 0.500000 0.142798
vt 0.352734 0.714403
vt 0.470312 0.857202
vt 0.500000 0.000000
vt 0.117578 0.857202
vt 0.470312 0.714403
vt 0.500000 0.500000
vt 0.823045 0.642798
vt 0.235156 0.500000
vt 0.500000 0.357202
vt 0.823045 0.786008
vt 0.823045 0.500000
vt 0.642798 0.357202
vt 0.470312 0.714403
vt 0.823045 0.643210
vt 0.857202 0.428807
vt 0.541505 0.831981
vt 0.965843 0.617578
vt 0.857202 0.500000
vt 0.235156 0.857202
vt 0.470312 0.831981
vt 0.928395 0.357202
vt 0.541916 0.714403
vt 0.894650 0.852734
vt 0.928395 0.428807
vt 0.894650 0.617578
vt 0.470312 0.714403
vt 1.000000 0.142798
vt 0.352734 0.714403
vt 0.705467 0.786008
vt 1.000000 0.357202
vt 0.823045 0.852734
vt 0.352734 0.500000
vt 0.857202 0.071605
vt 0.000000 0.974780
vt 0.823045 0.617578
vt 0.928395 0.071605
vt 0.894239 0.852734
vt 0.071193 0.974780
vt 0.928395 0.142798
vt 0.777072 0.786008
vt 0.823045 0.852734
vt 0.857202 0.000000
vt 0.894650 0.617578
vt 0.117578 0.500000
vt 0.857202 0.142798
vt 0.823045 0.500000
vt 0.587889 0.500000
vt 0.713992 0.142798
vt 0.587889 0.714403
vt 0.587889 0.643210
vt 0.928395 0.214403
vt 0.894650 0.735156
vt 0.857202 0.214403
vt 0.894650 0.500000
vt 0.965843 0.735156
vt 0.857202 0.357202
vt 0.659494 0.786420
vt 0.587889 0.786420
vt 0.857202 0.285597
vt 0.894650 0.970312
vt 0.587889 0.786420
vt 0.928395 0.285597
vt 0.965843 0.735156
vt 0.965843 0.970312
vt 0.713992 0.357202
vt 0.587889 0.643210
vt 0.587889 0.500000
vt 0.000000 0.500000
vt 0.000000 0.857202
vt 0.352734 0.714403
vt 0.000000 0.357202
vt 0.235156 0.714403
vt 0.352734 0.857202
vt 0.142798 0.357202
vt 0.235156 0.857202
vt 0.352734 0.500000
vt 0.142798 0.142798
vt 0.352734 0.714403
vt 0.705467 0.643210
vt 0.000000 0.142798
vt 0.705467 0.786008
vt 0.705467 0.500000
vt 0.000000 0.000000
vt 0.705467 0.642798
vt 0.117578 0.500000
vt 0.357202 0.000000
vt 0.117578 0.857202
vt 0.470312 0.949559
vt 0.357202 0.071193
vt 0.541505 0.949559
vt 0.965844 0.500000
vt 0.428395 0.071193
vt 0.894650 0.500000
vt 0.470312 0.831981
vt 0.428395 0.142798
vt 0.541916 0.831981
vt 0.894650 0.735156
vt 0.500000 0.142798
vt 0.823045 0.735156
vt 0.235156 0.500000
vt 0.500000 0.357202
vt 0.235156 0.714403
vt 0.705467 0.903586
vt 0.428395 0.357202
vt 0.777072 0.903586
vt 0.823045 0.970312
vt 0.428395 0.428395
vt 0.894239 0.970312
vt 0.071193 0.857202
vt 0.357202 0.428395
vt 0.000000 0.857202
vt 0.823045 0.735156
vt 0.357202 0.500000
vt 0.894650 0.735156
vt 0.000000 0.500000
vt 0.213992 0.357202
vt 0.470312 0.714403
vt 0.705467 0.643210
vt 0.357202 0.357202
vt 0.823045 0.617578
vt 0.705467 0.500000
vt 0.357202 0.285597
vt 0.894650 0.617578
vt 0.965844 0.617578
vt 0.428395 0.285597
vt 0.894650 0.617578
vt 0.894650 0.852734
vt 0.428395 0.214403
vt 0.965843 0.852734
vt 0.357202 0.214403
vt 0.894650 0.852734
vt 0.587889 0.903998
vt 0.357202 0.142798
vt 0.659494 0.903998
vt 0.705467 0.786420
vt 0.213992 0.142798
vt 0.705467 0.643210
vt 0.470312 0.500000
s 0
usemtl Material.003
f 1/1/1 2/4/1 3/7/1
f 4/10/1 5/13/1 6/16/1
f 7/19/1 8/22/1 4/10/1
f 9/25/1 10/28/1 7/19/1
f 11/31/1 12/34/1 9/25/1
f 13/37/1 14/40/1 15/43/1
f 3/7/1 16/46/1 13/37/1
f 17/49/1 18/52/1 3/7/1
f 19/55/1 20/57/1 17/49/1
f 21/60/1 22/63/1 23/66/1
f 1/1/1 3/7/1 18/52/1
f 7/19/1 4/10/1 6/16/1
f 11/31/1 9/25/1 7/19/1
f 3/7/1 13/37/1 15/43/1
f 1/1/1 18/52/1 24/69/1
f 17/49/1 3/7/1 15/43/1
f 6/16/1 1/1/1 24/69/1
f 19/55/1 17/49/1 15/43/1
f 7/19/1 6/16/1 24/69/1
f 19/55/1 15/43/1 11/31/1
f 7/19/1 24/69/1 21/60/1
f 23/66/1 19/55/1 11/31/1
f 7/19/1 21/60/1 23/66/1
f 23/66/1 11/31/1 7/19/1
f 25/72/2 26/75/2 27/78/2
f 28/81/2 29/84/2 30/87/2
f 30/87/2 31/90/2 32/93/2
f 32/93/2 33/96/2 34/99/2
f 34/99/2 35/102/2 36/105/2
f 37/108/2 38/111/2 39/114/2
f 39/114/2 40/117/2 25/72/2
f 25/72/2 41/120/2 42/123/2
f 42/123/2 43/126/2 44/129/2
f 45/132/2 46/134/2 47/137/2
f 41/120/2 25/72/2 27/78/2
f 28/81/2 30/87/2 32/93/2
f 32/93/2 34/99/2 36/105/2
f 37/108/2 39/114/2 25/72/2
f 48/140/2 41/120/2 27/78/2
f 37/108/2 25/72/2 42/123/2
f 48/140/2 27/78/2 28/81/2
f 37/108/2 42/123/2 44/129/2
f 48/140/2 28/81/2 32/93/2
f 36/105/2 37/108/2 44/129/2
f 47/137/2 48/140/2 32/93/2
f 36/105/2 44/129/2 45/132/2
f 45/132/2 47/137/2 32/93/2
f 32/93/2 36/105/2 45/132/2
f 2/5/3 1/2/3 26/76/3
f 1/2/3 27/79/3 26/76/3
f 1/3/4 6/17/4 27/80/4
f 6/17/4 28/82/4 27/80/4
f 6/18/5 5/14/5 28/83/5
f 5/14/5 29/85/5 28/83/5
f 5/15/4 4/11/4 29/86/4
f 4/11/4 30/88/4 29/86/4
f 4/12/3 8/23/3 30/89/3
f 8/23/3 31/91/3 30/89/3
f 8/24/6 7/20/6 31/92/6
f 7/20/6 32/94/6 31/92/6
f 7/21/3 10/29/3 32/95/3
f 10/29/3 33/97/3 32/95/3
f 10/30/6 9/26/6 33/98/6
f 9/26/6 34/100/6 33/98/6
f 9/27/3 12/35/3 34/101/3
f 12/35/3 35/103/3 34/101/3
f 12/36/6 11/32/6 35/104/6
f 11/32/6 36/106/6 35/104/6
f 11/33/5 15/44/5 36/107/5
f 15/44/5 37/109/5 36/107/5
f 15/45/6 14/41/6 37/110/6
f 14/41/6 38/112/6 37/110/6
f 14/42/5 13/38/5 38/113/5
f 13/38/5 39/115/5 38/113/5
f 13/39/6 16/47/6 39/116/6
f 16/47/6 40/118/6 39/116/6
f 16/48/5 3/8/5 40/119/5
f 3/8/5 25/73/5 40/119/5
f 3/9/4 2/6/4 25/74/4
f 2/6/4 26/77/4 25/74/4
f 17/50/4 20/58/4 42/124/4
f 20/58/4 43/127/4 42/124/4
f 20/59/3 19/56/3 43/128/3
f 19/56/3 44/130/3 43/128/3
f 19/56/4 23/67/4 44/131/4
f 23/67/4 45/133/4 44/131/4
f 23/68/5 22/64/5 45/133/5
f 22/64/5 46/135/5 45/133/5
f 22/65/4 21/61/4 46/136/4
f 21/61/4 47/138/4 46/136/4
f 21/62/5 24/70/5 47/139/5
f 24/70/5 48/141/5 47/139/5
f 24/71/6 18/53/6 48/142/6
f 18/53/6 41/121/6 48/142/6
f 18/54/3 17/51/3 41/122/3
f 17/51/3 42/125/3 41/122/3
