o 
v 8.33400011062622 2.0759999752044678 -4.9999999999999964
v 8.33400011062622 0 -4.9999999999999964
v -4.157999753952026 0 -4.999999999999999
v 0.006000041961669922 14.579999208450317 -4.999999999999998
v 4.1700005531311035 14.579999208450317 -4.999999999999997
v 4.1700005531311035 2.0759999752044678 -4.999999999999997
v -2.0819997787475586 10.4159996509552 -4.999999999999999
v -2.0819997787475586 12.491999864578247 -4.999999999999999
v 0.006000041961669922 12.491999864578247 -4.999999999999998
v -4.157999753952026 0 -4.999999999999999
v -4.157999753952026 2.0759999752044678 -4.999999999999999
v 0.006000041961669922 2.0759999752044678 -4.999999999999998
v 4.1700005531311035 2.0759999752044678 -4.999999999999997
v 8.33400011062622 2.0759999752044678 -4.9999999999999964
v -4.157999753952026 0 -4.999999999999999
v 0.006000041961669922 12.491999864578247 -4.999999999999998
v 0.006000041961669922 14.579999208450317 -4.999999999999998
v 4.1700005531311035 2.0759999752044678 -4.999999999999997
v 0.006000041961669922 10.4159996509552 -4.999999999999998
v -2.0819997787475586 10.4159996509552 -4.999999999999999
v 0.006000041961669922 12.491999864578247 -4.999999999999998
v 4.1700005531311035 2.0759999752044678 -4.999999999999997
v -4.157999753952026 0 -4.999999999999999
v 0.006000041961669922 2.0759999752044678 -4.999999999999998
v 0.006000041961669922 10.4159996509552 -4.999999999999998
v 0.006000041961669922 12.491999864578247 -4.999999999999998
v 4.1700005531311035 2.0759999752044678 -4.999999999999997
v 4.1700005531311035 2.0759999752044678 -4.999999999999997
v 0.006000041961669922 2.0759999752044678 -4.999999999999998
v 0.006000041961669922 10.4159996509552 -4.999999999999998
v -4.157999753952028 0 8.881784197001252e-16
v 8.334000110626219 0 3.552713678800501e-15
v 8.334000110626219 2.0759999752044678 3.552713678800501e-15
v 4.170000553131102 2.0759999752044678 2.6645352591003757e-15
v 4.170000553131102 14.579999208450317 2.6645352591003757e-15
v 0.006000041961669034 14.579999208450317 1.7763568394002505e-15
v 0.006000041961669034 12.491999864578247 1.7763568394002505e-15
v -2.0819997787475595 12.491999864578247 8.881784197001252e-16
v -2.0819997787475595 10.4159996509552 8.881784197001252e-16
v 0.006000041961669034 2.0759999752044678 1.7763568394002505e-15
v -4.157999753952028 2.0759999752044678 8.881784197001252e-16
v -4.157999753952028 0 8.881784197001252e-16
v -4.157999753952028 0 8.881784197001252e-16
v 8.334000110626219 2.0759999752044678 3.552713678800501e-15
v 4.170000553131102 2.0759999752044678 2.6645352591003757e-15
v 4.170000553131102 2.0759999752044678 2.6645352591003757e-15
v 0.006000041961669034 14.579999208450317 1.7763568394002505e-15
v 0.006000041961669034 12.491999864578247 1.7763568394002505e-15
v 0.006000041961669034 12.491999864578247 1.7763568394002505e-15
v -2.0819997787475595 10.4159996509552 8.881784197001252e-16
v 0.006000041961669034 10.4159996509552 1.7763568394002505e-15
v 0.006000041961669034 2.0759999752044678 1.7763568394002505e-15
v -4.157999753952028 0 8.881784197001252e-16
v 4.170000553131102 2.0759999752044678 2.6645352591003757e-15
v 4.170000553131102 2.0759999752044678 2.6645352591003757e-15
v 0.006000041961669034 12.491999864578247 1.7763568394002505e-15
v 0.006000041961669034 10.4159996509552 1.7763568394002505e-15
v 0.006000041961669034 10.4159996509552 1.7763568394002505e-15
v 0.006000041961669034 2.0759999752044678 1.7763568394002505e-15
v 4.170000553131102 2.0759999752044678 2.6645352591003757e-15
v 8.33400011062622 0 -4.9999999999999964
v 8.33400011062622 2.0759999752044678 -4.9999999999999964
v 8.334000110626219 0 3.552713678800501e-15
v 8.33400011062622 2.0759999752044678 -4.9999999999999964
v 8.334000110626219 2.0759999752044678 3.552713678800501e-15
v 8.334000110626219 0 3.552713678800501e-15
v 8.33400011062622 2.0759999752044678 -4.9999999999999964
v 4.1700005531311035 2.0759999752044678 -4.999999999999997
v 8.334000110626219 2.0759999752044678 3.552713678800501e-15
v 4.1700005531311035 2.0759999752044678 -4.999999999999997
v 4.170000553131102 2.0759999752044678 2.6645352591003757e-15
v 8.334000110626219 2.0759999752044678 3.552713678800501e-15
v 4.1700005531311035 2.0759999752044678 -4.999999999999997
v 4.1700005531311035 14.579999208450317 -4.999999999999997
v 4.170000553131102 2.0759999752044678 2.6645352591003757e-15
v 4.1700005531311035 14.579999208450317 -4.999999999999997
v 4.170000553131102 14.579999208450317 2.6645352591003757e-15
v 4.170000553131102 2.0759999752044678 2.6645352591003757e-15
v 4.1700005531311035 14.579999208450317 -4.999999999999997
v 0.006000041961669922 14.579999208450317 -4.999999999999998
v 4.170000553131102 14.579999208450317 2.6645352591003757e-15
v 0.006000041961669922 14.579999208450317 -4.999999999999998
v 0.006000041961669034 14.579999208450317 1.7763568394002505e-15
v 4.170000553131102 14.579999208450317 2.6645352591003757e-15
v 0.006000041961669922 14.579999208450317 -4.999999999999998
v 0.006000041961669922 12.491999864578247 -4.999999999999998
v 0.006000041961669034 14.579999208450317 1.7763568394002505e-15
v 0.006000041961669922 12.491999864578247 -4.999999999999998
v 0.006000041961669034 12.491999864578247 1.7763568394002505e-15
v 0.006000041961669034 14.579999208450317 1.7763568394002505e-15
v 0.006000041961669922 12.491999864578247 -4.999999999999998
v -2.0819997787475586 12.491999864578247 -4.999999999999999
v 0.006000041961669034 12.491999864578247 1.7763568394002505e-15
v -2.0819997787475586 12.491999864578247 -4.999999999999999
v -2.0819997787475595 12.491999864578247 8.881784197001252e-16
v 0.006000041961669034 12.491999864578247 1.7763568394002505e-15
v -2.0819997787475586 12.491999864578247 -4.999999999999999
v -2.0819997787475586 10.4159996509552 -4.999999999999999
v -2.0819997787475595 12.491999864578247 8.881784197001252e-16
v -2.0819997787475586 10.4159996509552 -4.999999999999999
v -2.0819997787475595 10.4159996509552 8.881784197001252e-16
v -2.0819997787475595 12.491999864578247 8.881784197001252e-16
v -2.0819997787475586 10.4159996509552 -4.999999999999999
v 0.006000041961669922 10.4159996509552 -4.999999999999998
v -2.0819997787475595 10.4159996509552 8.881784197001252e-16
v 0.006000041961669922 10.4159996509552 -4.999999999999998
v 0.006000041961669034 10.4159996509552 1.7763568394002505e-15
v -2.0819997787475595 10.4159996509552 8.881784197001252e-16
v 0.006000041961669922 10.4159996509552 -4.999999999999998
v 0.006000041961669922 2.0759999752044678 -4.999999999999998
v 0.006000041961669034 10.4159996509552 1.7763568394002505e-15
v 0.006000041961669922 2.0759999752044678 -4.999999999999998
v 0.006000041961669034 2.0759999752044678 1.7763568394002505e-15
v 0.006000041961669034 10.4159996509552 1.7763568394002505e-15
v 0.006000041961669922 2.0759999752044678 -4.999999999999998
v -4.157999753952026 2.0759999752044678 -4.999999999999999
v 0.006000041961669034 2.0759999752044678 1.7763568394002505e-15
v -4.157999753952026 2.0759999752044678 -4.999999999999999
v -4.157999753952028 2.0759999752044678 8.881784197001252e-16
v 0.006000041961669034 2.0759999752044678 1.7763568394002505e-15
v -4.157999753952026 2.0759999752044678 -4.999999999999999
v -4.157999753952026 0 -4.999999999999999
v -4.157999753952028 2.0759999752044678 8.881784197001252e-16
v -4.157999753952026 0 -4.999999999999999
v -4.157999753952028 0 8.881784197001252e-16
v -4.157999753952028 2.0759999752044678 8.881784197001252e-16
v -4.157999753952026 0 -4.999999999999999
v 8.33400011062622 0 -4.9999999999999964
v -4.157999753952028 0 8.881784197001252e-16
v 8.33400011062622 0 -4.9999999999999964
v 8.334000110626219 0 3.552713678800501e-15
v -4.157999753952028 0 8.881784197001252e-16
vt 14.579999923706055 4.164000034332275
vt 14.579999923706055 2.0880000591278076
vt 2.0880000591278076 2.0880000591278076
vt 6.251999855041504 16.667999267578125
vt 10.416000366210938 16.667999267578125
vt 10.416000366210938 4.164000034332275
vt 4.164000034332275 12.503999710083008
vt 4.164000034332275 14.579999923706055
vt 6.251999855041504 14.579999923706055
vt 2.0880000591278076 2.0880000591278076
vt 2.0880000591278076 4.164000034332275
vt 6.251999855041504 4.164000034332275
vt 10.416000366210938 4.164000034332275
vt 14.579999923706055 4.164000034332275
vt 2.0880000591278076 2.0880000591278076
vt 6.251999855041504 14.579999923706055
vt 6.251999855041504 16.667999267578125
vt 10.416000366210938 4.164000034332275
vt 6.251999855041504 12.503999710083008
vt 4.164000034332275 12.503999710083008
vt 6.251999855041504 14.579999923706055
vt 10.416000366210938 4.164000034332275
vt 2.0880000591278076 2.0880000591278076
vt 6.251999855041504 4.164000034332275
vt 6.251999855041504 12.503999710083008
vt 6.251999855041504 14.579999923706055
vt 10.416000366210938 4.164000034332275
vt 10.416000366210938 4.164000034332275
vt 6.251999855041504 4.164000034332275
vt 6.251999855041504 12.503999710083008
vt 2.0880000591278076 2.0880000591278076
vt 14.579999923706055 2.0880000591278076
vt 14.579999923706055 4.164000034332275
vt 10.416000366210938 4.164000034332275
vt 10.416000366210938 16.667999267578125
vt 6.251999855041504 16.667999267578125
vt 6.251999855041504 14.579999923706055
vt 4.164000034332275 14.579999923706055
vt 4.164000034332275 12.503999710083008
vt 6.251999855041504 4.164000034332275
vt 2.0880000591278076 4.164000034332275
vt 2.0880000591278076 2.0880000591278076
vt 2.0880000591278076 2.0880000591278076
vt 14.579999923706055 4.164000034332275
vt 10.416000366210938 4.164000034332275
vt 10.416000366210938 4.164000034332275
vt 6.251999855041504 16.667999267578125
vt 6.251999855041504 14.579999923706055
vt 6.251999855041504 14.579999923706055
vt 4.164000034332275 12.503999710083008
vt 6.251999855041504 12.503999710083008
vt 6.251999855041504 4.164000034332275
vt 2.0880000591278076 2.0880000591278076
vt 10.416000366210938 4.164000034332275
vt 10.416000366210938 4.164000034332275
vt 6.251999855041504 14.579999923706055
vt 6.251999855041504 12.503999710083008
vt 6.251999855041504 12.503999710083008
vt 6.251999855041504 4.164000034332275
vt 10.416000366210938 4.164000034332275
vt 2.0880000591278076 1
vt 4.164000034332275 1
vt 2.0880000591278076 -4
vt 4.164000034332275 1
vt 4.164000034332275 -4
vt 2.0880000591278076 -4
vt 14.579999923706055 1
vt 10.416000366210938 1
vt 14.579999923706055 -4
vt 10.416000366210938 1
vt 10.416000366210938 -4
vt 14.579999923706055 -4
vt 4.164000034332275 1
vt 16.667999267578125 1
vt 4.164000034332275 -4
vt 16.667999267578125 1
vt 16.667999267578125 -4
vt 4.164000034332275 -4
vt 10.416000366210938 1
vt 6.251999855041504 1
vt 10.416000366210938 -4
vt 6.251999855041504 1
vt 6.251999855041504 -4
vt 10.416000366210938 -4
vt 16.667999267578125 1
vt 14.579999923706055 1
vt 16.667999267578125 -4
vt 14.579999923706055 1
vt 14.579999923706055 -4
vt 16.667999267578125 -4
vt 6.251999855041504 1
vt 4.164000034332275 1
vt 6.251999855041504 -4
vt 4.164000034332275 1
vt 4.164000034332275 -4
vt 6.251999855041504 -4
vt 14.579999923706055 1
vt 12.503999710083008 1
vt 14.579999923706055 -4
vt 12.503999710083008 1
vt 12.503999710083008 -4
vt 14.579999923706055 -4
vt 4.164000034332275 1
vt 6.251999855041504 1
vt 4.164000034332275 -4
vt 6.251999855041504 1
vt 6.251999855041504 -4
vt 4.164000034332275 -4
vt 12.503999710083008 1
vt 4.164000034332275 1
vt 12.503999710083008 -4
vt 4.164000034332275 1
vt 4.164000034332275 -4
vt 12.503999710083008 -4
vt 6.251999855041504 1
vt 2.0880000591278076 1
vt 6.251999855041504 -4
vt 2.0880000591278076 1
vt 2.0880000591278076 -4
vt 6.251999855041504 -4
vt 4.164000034332275 1
vt 2.0880000591278076 1
vt 4.164000034332275 -4
vt 2.0880000591278076 1
vt 2.0880000591278076 -4
vt 4.164000034332275 -4
vt 2.0880000591278076 1
vt 14.579999923706055 1
vt 2.0880000591278076 -4
vt 14.579999923706055 1
vt 14.579999923706055 -4
vt 2.0880000591278076 -4
vn 0.45738878846168535 0.4587107002735138 -0.7618267536163329
vn 0.08109055459499365 -0.9758990406990051 -0.20259663462638852
vn -0.24773353338241563 -0.7453485727310181 -0.6189374923706056
vn -0.1403297632932661 0.5597060918807983 -0.816723108291626
vn 0.9124476909637452 0.15192867815494537 -0.37994322180747964
vn 0.4378778338432314 0.29163840413093567 -0.8504175543785094
vn -0.8370360136032103 -0.420937180519104 -0.3495462536811831
vn -0.43765598535537714 0.8803715705871582 -0.18276514112949382
vn -0.5974503755569456 0.2987251877784729 -0.7441883087158204
vn -0.24773353338241563 -0.7453485727310181 -0.6189374923706056
vn -0.23711483180522913 0.951200544834137 -0.1974692344665528
vn -0.8300760388374328 0.2072204202413559 -0.5177195072174074
vn 0.4378778338432314 0.29163840413093567 -0.8504175543785094
vn 0.45738878846168535 0.4587107002735138 -0.7618267536163329
vn -0.24773353338241563 -0.7453485727310181 -0.6189374923706056
vn -0.5974503755569456 0.2987251877784729 -0.7441883087158204
vn -0.1403297632932661 0.5597060918807983 -0.816723108291626
vn 0.4378778338432314 0.29163840413093567 -0.8504175543785094
vn -0.6250522732734678 -0.31297582387924194 -0.7150914669036866
vn -0.8370360136032103 -0.420937180519104 -0.3495462536811831
vn -0.5974503755569456 0.2987251877784729 -0.7441883087158204
vn 0.4378778338432314 0.29163840413093567 -0.8504175543785094
vn -0.24773353338241563 -0.7453485727310181 -0.6189374923706056
vn -0.8300760388374328 0.2072204202413559 -0.5177195072174074
vn -0.6250522732734678 -0.31297582387924194 -0.7150914669036866
vn -0.5974503755569456 0.2987251877784729 -0.7441883087158204
vn 0.4378778338432314 0.29163840413093567 -0.8504175543785094
vn 0.4378778338432314 0.29163840413093567 -0.8504175543785094
vn -0.8300760388374328 0.2072204202413559 -0.5177195072174074
vn -0.6250522732734678 -0.31297582387924194 -0.7150914669036866
vn -0.07651631534099589 -0.9208495616912842 0.38233673572540283
vn 0.29345080256462086 -0.8828967213630676 0.3665787279605866
vn 0.18834592401981337 0.755561113357544 0.6274179220199585
vn 0.712344706058502 0.11861017346382141 0.6917345523834231
vn 0.6840419769287108 0.45559030771255493 0.5696701407432558
vn -0.30916014313697837 0.30827173590660095 0.8996602296829223
vn -0.29872518777847307 0.5974503755569458 0.7441883087158202
vn -0.8782424330711365 0.44165948033332825 0.18337701261043526
vn -0.4172489345073701 -0.8393215537071228 0.348486304283142
vn -0.5305104851722718 0.5297471880912781 0.6617601513862609
vn -0.6774132251739503 0.6793710589408875 0.28207486867904646
vn -0.07651631534099589 -0.9208495616912842 0.38233673572540283
vn -0.07651631534099589 -0.9208495616912842 0.38233673572540283
vn 0.18834592401981337 0.755561113357544 0.6274179220199585
vn 0.712344706058502 0.11861017346382141 0.6917345523834231
vn 0.712344706058502 0.11861017346382141 0.6917345523834231
vn -0.30916014313697837 0.30827173590660095 0.8996602296829223
vn -0.29872518777847307 0.5974503755569458 0.7441883087158202
vn -0.29872518777847307 0.5974503755569458 0.7441883087158202
vn -0.4172489345073701 -0.8393215537071228 0.348486304283142
vn -0.8629406094551088 -0.1080227866768837 0.49362388253211953
vn -0.5305104851722718 0.5297471880912781 0.6617601513862609
vn -0.07651631534099589 -0.9208495616912842 0.38233673572540283
vn 0.712344706058502 0.11861017346382141 0.6917345523834231
vn 0.712344706058502 0.11861017346382141 0.6917345523834231
vn -0.29872518777847307 0.5974503755569458 0.7441883087158202
vn -0.8629406094551088 -0.1080227866768837 0.49362388253211953
vn -0.8629406094551088 -0.1080227866768837 0.49362388253211953
vn -0.5305104851722718 0.5297471880912781 0.6617601513862609
vn 0.712344706058502 0.11861017346382141 0.6917345523834231
vn 0.08109055459499365 -0.9758990406990051 -0.20259663462638852
vn 0.45738878846168535 0.4587107002735138 -0.7618267536163329
vn 0.29345080256462086 -0.8828967213630676 0.3665787279605866
vn 0.45738878846168535 0.4587107002735138 -0.7618267536163329
vn 0.18834592401981337 0.755561113357544 0.6274179220199585
vn 0.29345080256462086 -0.8828967213630676 0.3665787279605866
vn 0.45738878846168535 0.4587107002735138 -0.7618267536163329
vn 0.4378778338432314 0.29163840413093567 -0.8504175543785094
vn 0.18834592401981337 0.755561113357544 0.6274179220199585
vn 0.4378778338432314 0.29163840413093567 -0.8504175543785094
vn 0.712344706058502 0.11861017346382141 0.6917345523834231
vn 0.18834592401981337 0.755561113357544 0.6274179220199585
vn 0.4378778338432314 0.29163840413093567 -0.8504175543785094
vn 0.9124476909637452 0.15192867815494537 -0.37994322180747964
vn 0.712344706058502 0.11861017346382141 0.6917345523834231
vn 0.9124476909637452 0.15192867815494537 -0.37994322180747964
vn 0.6840419769287108 0.45559030771255493 0.5696701407432558
vn 0.712344706058502 0.11861017346382141 0.6917345523834231
vn 0.9124476909637452 0.15192867815494537 -0.37994322180747964
vn -0.1403297632932661 0.5597060918807983 -0.816723108291626
vn 0.6840419769287108 0.45559030771255493 0.5696701407432558
vn -0.1403297632932661 0.5597060918807983 -0.816723108291626
vn -0.30916014313697837 0.30827173590660095 0.8996602296829223
vn 0.6840419769287108 0.45559030771255493 0.5696701407432558
vn -0.1403297632932661 0.5597060918807983 -0.816723108291626
vn -0.5974503755569456 0.2987251877784729 -0.7441883087158204
vn -0.30916014313697837 0.30827173590660095 0.8996602296829223
vn -0.5974503755569456 0.2987251877784729 -0.7441883087158204
vn -0.29872518777847307 0.5974503755569458 0.7441883087158202
vn -0.30916014313697837 0.30827173590660095 0.8996602296829223
vn -0.5974503755569456 0.2987251877784729 -0.7441883087158204
vn -0.43765598535537714 0.8803715705871582 -0.18276514112949382
vn -0.29872518777847307 0.5974503755569458 0.7441883087158202
vn -0.43765598535537714 0.8803715705871582 -0.18276514112949382
vn -0.8782424330711365 0.44165948033332825 0.18337701261043526
vn -0.29872518777847307 0.5974503755569458 0.7441883087158202
vn -0.43765598535537714 0.8803715705871582 -0.18276514112949382
vn -0.8370360136032103 -0.420937180519104 -0.3495462536811831
vn -0.8782424330711365 0.44165948033332825 0.18337701261043526
vn -0.8370360136032103 -0.420937180519104 -0.3495462536811831
vn -0.4172489345073701 -0.8393215537071228 0.348486304283142
vn -0.8782424330711365 0.44165948033332825 0.18337701261043526
vn -0.8370360136032103 -0.420937180519104 -0.3495462536811831
vn -0.6250522732734678 -0.31297582387924194 -0.7150914669036866
vn -0.4172489345073701 -0.8393215537071228 0.348486304283142
vn -0.6250522732734678 -0.31297582387924194 -0.7150914669036866
vn -0.8629406094551088 -0.1080227866768837 0.49362388253211953
vn -0.4172489345073701 -0.8393215537071228 0.348486304283142
vn -0.6250522732734678 -0.31297582387924194 -0.7150914669036866
vn -0.8300760388374328 0.2072204202413559 -0.5177195072174074
vn -0.8629406094551088 -0.1080227866768837 0.49362388253211953
vn -0.8300760388374328 0.2072204202413559 -0.5177195072174074
vn -0.5305104851722718 0.5297471880912781 0.6617601513862609
vn -0.8629406094551088 -0.1080227866768837 0.49362388253211953
vn -0.8300760388374328 0.2072204202413559 -0.5177195072174074
vn -0.23711483180522913 0.951200544834137 -0.1974692344665528
vn -0.5305104851722718 0.5297471880912781 0.6617601513862609
vn -0.23711483180522913 0.951200544834137 -0.1974692344665528
vn -0.6774132251739503 0.6793710589408875 0.28207486867904646
vn -0.5305104851722718 0.5297471880912781 0.6617601513862609
vn -0.23711483180522913 0.951200544834137 -0.1974692344665528
vn -0.24773353338241563 -0.7453485727310181 -0.6189374923706056
vn -0.6774132251739503 0.6793710589408875 0.28207486867904646
vn -0.24773353338241563 -0.7453485727310181 -0.6189374923706056
vn -0.07651631534099589 -0.9208495616912842 0.38233673572540283
vn -0.6774132251739503 0.6793710589408875 0.28207486867904646
vn -0.24773353338241563 -0.7453485727310181 -0.6189374923706056
vn 0.08109055459499365 -0.9758990406990051 -0.20259663462638852
vn -0.07651631534099589 -0.9208495616912842 0.38233673572540283
vn 0.08109055459499365 -0.9758990406990051 -0.20259663462638852
vn 0.29345080256462086 -0.8828967213630676 0.3665787279605866
vn -0.07651631534099589 -0.9208495616912842 0.38233673572540283
f 1/1/1 2/2/2 3/3/3
f 4/4/4 5/5/5 6/6/6
f 7/7/7 8/8/8 9/9/9
f 10/10/10 11/11/11 12/12/12
f 13/13/13 14/14/14 15/15/15
f 16/16/16 17/17/17 18/18/18
f 19/19/19 20/20/20 21/21/21
f 22/22/22 23/23/23 24/24/24
f 25/25/25 26/26/26 27/27/27
f 28/28/28 29/29/29 30/30/30
f 31/31/31 32/32/32 33/33/33
f 34/34/34 35/35/35 36/36/36
f 37/37/37 38/38/38 39/39/39
f 40/40/40 41/41/41 42/42/42
f 43/43/43 44/44/44 45/45/45
f 46/46/46 47/47/47 48/48/48
f 49/49/49 50/50/50 51/51/51
f 52/52/52 53/53/53 54/54/54
f 55/55/55 56/56/56 57/57/57
f 58/58/58 59/59/59 60/60/60
f 61/61/61 62/62/62 63/63/63
f 64/64/64 65/65/65 66/66/66
f 67/67/67 68/68/68 69/69/69
f 70/70/70 71/71/71 72/72/72
f 73/73/73 74/74/74 75/75/75
f 76/76/76 77/77/77 78/78/78
f 79/79/79 80/80/80 81/81/81
f 82/82/82 83/83/83 84/84/84
f 85/85/85 86/86/86 87/87/87
f 88/88/88 89/89/89 90/90/90
f 91/91/91 92/92/92 93/93/93
f 94/94/94 95/95/95 96/96/96
f 97/97/97 98/98/98 99/99/99
f 100/100/100 101/101/101 102/102/102
f 103/103/103 104/104/104 105/105/105
f 106/106/106 107/107/107 108/108/108
f 109/109/109 110/110/110 111/111/111
f 112/112/112 113/113/113 114/114/114
f 115/115/115 116/116/116 117/117/117
f 118/118/118 119/119/119 120/120/120
f 121/121/121 122/122/122 123/123/123
f 124/124/124 125/125/125 126/126/126
f 127/127/127 128/128/128 129/129/129
f 130/130/130 131/131/131 132/132/132
