o 
v 7.289999961853027 2.0759999752044678 -4.9999999999999964
v 7.289999961853027 0 -4.9999999999999964
v -7.289999961853027 0 -5
v 5.2139997482299805 8.32800030708313 -4.999999999999997
v 5.2139997482299805 6.240000009536743 -4.999999999999997
v -3.125999927520752 6.240000009536743 -4.999999999999999
v 7.289999961853027 14.579999208450317 -4.9999999999999964
v 7.289999961853027 12.491999864578247 -4.9999999999999964
v -3.125999927520752 12.491999864578247 -4.999999999999999
v -3.125999927520752 2.0759999752044678 -4.999999999999999
v 7.289999961853027 2.0759999752044678 -4.9999999999999964
v -7.289999961853027 0 -5
v -3.125999927520752 8.32800030708313 -4.999999999999999
v 5.2139997482299805 8.32800030708313 -4.999999999999997
v -3.125999927520752 6.240000009536743 -4.999999999999999
v -7.289999961853027 14.579999208450317 -5
v 7.289999961853027 14.579999208450317 -4.9999999999999964
v -3.125999927520752 12.491999864578247 -4.999999999999999
v -3.125999927520752 2.0759999752044678 -4.999999999999999
v -7.289999961853027 0 -5
v -7.289999961853027 14.579999208450317 -5
v -7.289999961853027 14.579999208450317 -5
v -3.125999927520752 12.491999864578247 -4.999999999999999
v -3.125999927520752 8.32800030708313 -4.999999999999999
v -3.125999927520752 6.240000009536743 -4.999999999999999
v -3.125999927520752 2.0759999752044678 -4.999999999999999
v -7.289999961853027 14.579999208450317 -5
v -7.289999961853027 14.579999208450317 -5
v -3.125999927520752 8.32800030708313 -4.999999999999999
v -3.125999927520752 6.240000009536743 -4.999999999999999
v -7.289999961853028 0 0
v 7.289999961853026 0 3.552713678800501e-15
v 7.289999961853026 2.0759999752044678 3.552713678800501e-15
v -3.125999927520753 6.240000009536743 8.881784197001252e-16
v 5.213999748229979 6.240000009536743 2.6645352591003757e-15
v 5.213999748229979 8.32800030708313 2.6645352591003757e-15
v -3.125999927520753 12.491999864578247 8.881784197001252e-16
v 7.289999961853026 12.491999864578247 3.552713678800501e-15
v 7.289999961853026 14.579999208450317 3.552713678800501e-15
v -7.289999961853028 0 0
v 7.289999961853026 2.0759999752044678 3.552713678800501e-15
v -3.125999927520753 2.0759999752044678 8.881784197001252e-16
v -3.125999927520753 6.240000009536743 8.881784197001252e-16
v 5.213999748229979 8.32800030708313 2.6645352591003757e-15
v -3.125999927520753 8.32800030708313 8.881784197001252e-16
v -3.125999927520753 12.491999864578247 8.881784197001252e-16
v 7.289999961853026 14.579999208450317 3.552713678800501e-15
v -7.289999961853028 14.579999208450317 0
v -7.289999961853028 14.579999208450317 0
v -7.289999961853028 0 0
v -3.125999927520753 2.0759999752044678 8.881784197001252e-16
v -3.125999927520753 8.32800030708313 8.881784197001252e-16
v -3.125999927520753 12.491999864578247 8.881784197001252e-16
v -7.289999961853028 14.579999208450317 0
v -7.289999961853028 14.579999208450317 0
v -3.125999927520753 2.0759999752044678 8.881784197001252e-16
v -3.125999927520753 6.240000009536743 8.881784197001252e-16
v -3.125999927520753 6.240000009536743 8.881784197001252e-16
v -3.125999927520753 8.32800030708313 8.881784197001252e-16
v -7.289999961853028 14.579999208450317 0
v 7.289999961853027 0 -4.9999999999999964
v 7.289999961853027 2.0759999752044678 -4.9999999999999964
v 7.289999961853026 0 3.552713678800501e-15
v 7.289999961853027 2.0759999752044678 -4.9999999999999964
v 7.289999961853026 2.0759999752044678 3.552713678800501e-15
v 7.289999961853026 0 3.552713678800501e-15
v 7.289999961853027 2.0759999752044678 -4.9999999999999964
v -3.125999927520752 2.0759999752044678 -4.999999999999999
v 7.289999961853026 2.0759999752044678 3.552713678800501e-15
v -3.125999927520752 2.0759999752044678 -4.999999999999999
v -3.125999927520753 2.0759999752044678 8.881784197001252e-16
v 7.289999961853026 2.0759999752044678 3.552713678800501e-15
v -3.125999927520752 2.0759999752044678 -4.999999999999999
v -3.125999927520752 6.240000009536743 -4.999999999999999
v -3.125999927520753 2.0759999752044678 8.881784197001252e-16
v -3.125999927520752 6.240000009536743 -4.999999999999999
v -3.125999927520753 6.240000009536743 8.881784197001252e-16
v -3.125999927520753 2.0759999752044678 8.881784197001252e-16
v -3.125999927520752 6.240000009536743 -4.999999999999999
v 5.2139997482299805 6.240000009536743 -4.999999999999997
v -3.125999927520753 6.240000009536743 8.881784197001252e-16
v 5.2139997482299805 6.240000009536743 -4.999999999999997
v 5.213999748229979 6.240000009536743 2.6645352591003757e-15
v -3.125999927520753 6.240000009536743 8.881784197001252e-16
v 5.2139997482299805 6.240000009536743 -4.999999999999997
v 5.2139997482299805 8.32800030708313 -4.999999999999997
v 5.213999748229979 6.240000009536743 2.6645352591003757e-15
v 5.2139997482299805 8.32800030708313 -4.999999999999997
v 5.213999748229979 8.32800030708313 2.6645352591003757e-15
v 5.213999748229979 6.240000009536743 2.6645352591003757e-15
v 5.2139997482299805 8.32800030708313 -4.999999999999997
v -3.125999927520752 8.32800030708313 -4.999999999999999
v 5.213999748229979 8.32800030708313 2.6645352591003757e-15
v -3.125999927520752 8.32800030708313 -4.999999999999999
v -3.125999927520753 8.32800030708313 8.881784197001252e-16
v 5.213999748229979 8.32800030708313 2.6645352591003757e-15
v -3.125999927520752 8.32800030708313 -4.999999999999999
v -3.125999927520752 12.491999864578247 -4.999999999999999
v -3.125999927520753 8.32800030708313 8.881784197001252e-16
v -3.125999927520752 12.491999864578247 -4.999999999999999
v -3.125999927520753 12.491999864578247 8.881784197001252e-16
v -3.125999927520753 8.32800030708313 8.881784197001252e-16
v -3.125999927520752 12.491999864578247 -4.999999999999999
v 7.289999961853027 12.491999864578247 -4.9999999999999964
v -3.125999927520753 12.491999864578247 8.881784197001252e-16
v 7.289999961853027 12.491999864578247 -4.9999999999999964
v 7.289999961853026 12.491999864578247 3.552713678800501e-15
v -3.125999927520753 12.491999864578247 8.881784197001252e-16
v 7.289999961853027 12.491999864578247 -4.9999999999999964
v 7.289999961853027 14.579999208450317 -4.9999999999999964
v 7.289999961853026 12.491999864578247 3.552713678800501e-15
v 7.289999961853027 14.579999208450317 -4.9999999999999964
v 7.289999961853026 14.579999208450317 3.552713678800501e-15
v 7.289999961853026 12.491999864578247 3.552713678800501e-15
v 7.289999961853027 14.579999208450317 -4.9999999999999964
v -7.289999961853027 14.579999208450317 -5
v 7.289999961853026 14.579999208450317 3.552713678800501e-15
v -7.289999961853027 14.579999208450317 -5
v -7.289999961853028 14.579999208450317 0
v 7.289999961853026 14.579999208450317 3.552713678800501e-15
v -7.289999961853027 14.579999208450317 -5
v -7.289999961853027 0 -5
v -7.289999961853028 14.579999208450317 0
v -7.289999961853027 0 -5
v -7.289999961853028 0 0
v -7.289999961853028 14.579999208450317 0
v -7.289999961853027 0 -5
v 7.289999961853027 0 -4.9999999999999964
v -7.289999961853028 0 0
v 7.289999961853027 0 -4.9999999999999964
v 7.289999961853026 0 3.552713678800501e-15
v -7.289999961853028 0 0
vt 14.579999923706055 4.164000034332275
vt 14.579999923706055 2.0880000591278076
vt 0 2.0880000591278076
vt 12.503999710083008 10.416000366210938
vt 12.503999710083008 8.32800006866455
vt 4.164000034332275 8.32800006866455
vt 14.579999923706055 16.667999267578125
vt 14.579999923706055 14.579999923706055
vt 4.164000034332275 14.579999923706055
vt 4.164000034332275 4.164000034332275
vt 14.579999923706055 4.164000034332275
vt 0 2.0880000591278076
vt 4.164000034332275 10.416000366210938
vt 12.503999710083008 10.416000366210938
vt 4.164000034332275 8.32800006866455
vt 0 16.667999267578125
vt 14.579999923706055 16.667999267578125
vt 4.164000034332275 14.579999923706055
vt 4.164000034332275 4.164000034332275
vt 0 2.0880000591278076
vt 0 16.667999267578125
vt 0 16.667999267578125
vt 4.164000034332275 14.579999923706055
vt 4.164000034332275 10.416000366210938
vt 4.164000034332275 8.32800006866455
vt 4.164000034332275 4.164000034332275
vt 0 16.667999267578125
vt 0 16.667999267578125
vt 4.164000034332275 10.416000366210938
vt 4.164000034332275 8.32800006866455
vt 0 2.0880000591278076
vt 14.579999923706055 2.0880000591278076
vt 14.579999923706055 4.164000034332275
vt 4.164000034332275 8.32800006866455
vt 12.503999710083008 8.32800006866455
vt 12.503999710083008 10.416000366210938
vt 4.164000034332275 14.579999923706055
vt 14.579999923706055 14.579999923706055
vt 14.579999923706055 16.667999267578125
vt 0 2.0880000591278076
vt 14.579999923706055 4.164000034332275
vt 4.164000034332275 4.164000034332275
vt 4.164000034332275 8.32800006866455
vt 12.503999710083008 10.416000366210938
vt 4.164000034332275 10.416000366210938
vt 4.164000034332275 14.579999923706055
vt 14.579999923706055 16.667999267578125
vt 0 16.667999267578125
vt 0 16.667999267578125
vt 0 2.0880000591278076
vt 4.164000034332275 4.164000034332275
vt 4.164000034332275 10.416000366210938
vt 4.164000034332275 14.579999923706055
vt 0 16.667999267578125
vt 0 16.667999267578125
vt 4.164000034332275 4.164000034332275
vt 4.164000034332275 8.32800006866455
vt 4.164000034332275 8.32800006866455
vt 4.164000034332275 10.416000366210938
vt 0 16.667999267578125
vt 2.0880000591278076 1
vt 4.164000034332275 1
vt 2.0880000591278076 -4
vt 4.164000034332275 1
vt 4.164000034332275 -4
vt 2.0880000591278076 -4
vt 14.579999923706055 1
vt 4.164000034332275 1
vt 14.579999923706055 -4
vt 4.164000034332275 1
vt 4.164000034332275 -4
vt 14.579999923706055 -4
vt 4.164000034332275 1
vt 8.32800006866455 1
vt 4.164000034332275 -4
vt 8.32800006866455 1
vt 8.32800006866455 -4
vt 4.164000034332275 -4
vt 4.164000034332275 1
vt 12.503999710083008 1
vt 4.164000034332275 -4
vt 12.503999710083008 1
vt 12.503999710083008 -4
vt 4.164000034332275 -4
vt 8.32800006866455 1
vt 10.416000366210938 1
vt 8.32800006866455 -4
vt 10.416000366210938 1
vt 10.416000366210938 -4
vt 8.32800006866455 -4
vt 12.503999710083008 1
vt 4.164000034332275 1
vt 12.503999710083008 -4
vt 4.164000034332275 1
vt 4.164000034332275 -4
vt 12.503999710083008 -4
vt 10.416000366210938 1
vt 14.579999923706055 1
vt 10.416000366210938 -4
vt 14.579999923706055 1
vt 14.579999923706055 -4
vt 10.416000366210938 -4
vt 4.164000034332275 1
vt 14.579999923706055 1
vt 4.164000034332275 -4
vt 14.579999923706055 1
vt 14.579999923706055 -4
vt 4.164000034332275 -4
vt 14.579999923706055 1
vt 16.667999267578125 1
vt 14.579999923706055 -4
vt 16.667999267578125 1
vt 16.667999267578125 -4
vt 14.579999923706055 -4
vt 14.579999923706055 1
vt 0 1
vt 14.579999923706055 -4
vt 0 1
vt 0 -4
vt 14.579999923706055 -4
vt 16.667999267578125 1
vt 2.0880000591278076 1
vt 16.667999267578125 -4
vt 2.0880000591278076 1
vt 2.0880000591278076 -4
vt 16.667999267578125 -4
vt 0 1
vt 14.579999923706055 1
vt 0 -4
vt 14.579999923706055 1
vt 14.579999923706055 -4
vt 0 -4
vn 0.27174887061119096 0.6817284226417542 -0.6792635321617125
vn 0.06953840702772146 -0.9767533540725708 -0.2027740031480789
vn -0.7359184622764586 -0.36795923113822937 -0.5683572888374331
vn 0.35873097181320207 0.7164310812950134 -0.5983632802963256
vn 0.1216274574398995 -0.9716216921806335 -0.20287460088729856
vn 0.4915225505828859 -0.4922308027744293 -0.7184110283851622
vn 0.2268178462982179 0.7919071316719055 -0.5669538974761962
vn 0.09764559566974645 -0.9742112159729004 -0.2034153044223785
vn 0.4322351217269899 -0.5406053066253662 -0.7217469811439513
vn 0.14293299615383165 0.7150768637657166 -0.6842771768569946
vn 0.27174887061119096 0.6817284226417542 -0.6792635321617125
vn -0.7359184622764586 -0.36795923113822937 -0.5683572888374331
vn 0.21616435050964367 0.8659033179283142 -0.4510925114154815
vn 0.35873097181320207 0.7164310812950134 -0.5983632802963256
vn 0.4915225505828859 -0.4922308027744293 -0.7184110283851622
vn -0.3449232578277586 0.6898465156555176 -0.6365059018135072
vn 0.2268178462982179 0.7919071316719055 -0.5669538974761962
vn 0.4322351217269899 -0.5406053066253662 -0.7217469811439513
vn 0.14293299615383165 0.7150768637657166 -0.6842771768569946
vn -0.7359184622764586 -0.36795923113822937 -0.5683572888374331
vn -0.3449232578277586 0.6898465156555176 -0.6365059018135072
vn -0.3449232578277586 0.6898465156555176 -0.6365059018135072
vn 0.4322351217269899 -0.5406053066253662 -0.7217469811439513
vn 0.21616435050964367 0.8659033179283142 -0.4510925114154815
vn 0.4915225505828859 -0.4922308027744293 -0.7184110283851622
vn 0.14293299615383165 0.7150768637657166 -0.6842771768569946
vn -0.3449232578277586 0.6898465156555176 -0.6365059018135072
vn -0.3449232578277586 0.6898465156555176 -0.6365059018135072
vn 0.21616435050964367 0.8659033179283142 -0.4510925114154815
vn 0.4915225505828859 -0.4922308027744293 -0.7184110283851622
vn -0.36795923113822954 -0.7359184622764587 0.5683572888374328
vn 0.2543547749519347 -0.8931822180747986 0.3708492517471314
vn 0.08884525299072255 0.8915339112281799 0.44415518641471863
vn 0.19767601788043962 -0.7918434143066406 0.5778478980064392
vn 0.41944041848182667 -0.8376755714416504 0.3498133122920991
vn 0.11474930495023718 0.9166755080223083 0.3828036785125733
vn 0.16399663686752305 -0.82045578956604 0.5476837158203125
vn 0.3469749093055724 -0.8654431700706482 0.3614090681076051
vn 0.06726306676864616 0.9393635392189026 0.3362615406513214
vn -0.36795923113822954 -0.7359184622764587 0.5683572888374328
vn 0.08884525299072255 0.8915339112281799 0.44415518641471863
vn 0.34722855687141396 0.43428587913513184 0.8311607241630555
vn 0.19767601788043962 -0.7918434143066406 0.5778478980064392
vn 0.11474930495023718 0.9166755080223083 0.3828036785125733
vn 0.5687355399131774 0.5695550441741943 0.5934196710586549
vn 0.16399663686752305 -0.82045578956604 0.5476837158203125
vn 0.06726306676864616 0.9393635392189026 0.3362615406513214
vn -0.6898465156555177 0.3449232578277588 0.6365059018135069
vn -0.6898465156555177 0.3449232578277588 0.6365059018135069
vn -0.36795923113822954 -0.7359184622764587 0.5683572888374328
vn 0.34722855687141396 0.43428587913513184 0.8311607241630555
vn 0.5687355399131774 0.5695550441741943 0.5934196710586549
vn 0.16399663686752305 -0.82045578956604 0.5476837158203125
vn -0.6898465156555177 0.3449232578277588 0.6365059018135069
vn -0.6898465156555177 0.3449232578277588 0.6365059018135069
vn 0.34722855687141396 0.43428587913513184 0.8311607241630555
vn 0.19767601788043962 -0.7918434143066406 0.5778478980064392
vn 0.19767601788043962 -0.7918434143066406 0.5778478980064392
vn 0.5687355399131774 0.5695550441741943 0.5934196710586549
vn -0.6898465156555177 0.3449232578277588 0.6365059018135069
vn 0.06953840702772146 -0.9767533540725708 -0.2027740031480789
vn 0.27174887061119096 0.6817284226417542 -0.6792635321617125
vn 0.2543547749519347 -0.8931822180747986 0.3708492517471314
vn 0.27174887061119096 0.6817284226417542 -0.6792635321617125
vn 0.08884525299072255 0.8915339112281799 0.44415518641471863
vn 0.2543547749519347 -0.8931822180747986 0.3708492517471314
vn 0.27174887061119096 0.6817284226417542 -0.6792635321617125
vn 0.14293299615383165 0.7150768637657166 -0.6842771768569946
vn 0.08884525299072255 0.8915339112281799 0.44415518641471863
vn 0.14293299615383165 0.7150768637657166 -0.6842771768569946
vn 0.34722855687141396 0.43428587913513184 0.8311607241630555
vn 0.08884525299072255 0.8915339112281799 0.44415518641471863
vn 0.14293299615383165 0.7150768637657166 -0.6842771768569946
vn 0.4915225505828859 -0.4922308027744293 -0.7184110283851622
vn 0.34722855687141396 0.43428587913513184 0.8311607241630555
vn 0.4915225505828859 -0.4922308027744293 -0.7184110283851622
vn 0.19767601788043962 -0.7918434143066406 0.5778478980064392
vn 0.34722855687141396 0.43428587913513184 0.8311607241630555
vn 0.4915225505828859 -0.4922308027744293 -0.7184110283851622
vn 0.1216274574398995 -0.9716216921806335 -0.20287460088729856
vn 0.19767601788043962 -0.7918434143066406 0.5778478980064392
vn 0.1216274574398995 -0.9716216921806335 -0.20287460088729856
vn 0.41944041848182667 -0.8376755714416504 0.3498133122920991
vn 0.19767601788043962 -0.7918434143066406 0.5778478980064392
vn 0.1216274574398995 -0.9716216921806335 -0.20287460088729856
vn 0.35873097181320207 0.7164310812950134 -0.5983632802963256
vn 0.41944041848182667 -0.8376755714416504 0.3498133122920991
vn 0.35873097181320207 0.7164310812950134 -0.5983632802963256
vn 0.11474930495023718 0.9166755080223083 0.3828036785125733
vn 0.41944041848182667 -0.8376755714416504 0.3498133122920991
vn 0.35873097181320207 0.7164310812950134 -0.5983632802963256
vn 0.21616435050964367 0.8659033179283142 -0.4510925114154815
vn 0.11474930495023718 0.9166755080223083 0.3828036785125733
vn 0.21616435050964367 0.8659033179283142 -0.4510925114154815
vn 0.5687355399131774 0.5695550441741943 0.5934196710586549
vn 0.11474930495023718 0.9166755080223083 0.3828036785125733
vn 0.21616435050964367 0.8659033179283142 -0.4510925114154815
vn 0.4322351217269899 -0.5406053066253662 -0.7217469811439513
vn 0.5687355399131774 0.5695550441741943 0.5934196710586549
vn 0.4322351217269899 -0.5406053066253662 -0.7217469811439513
vn 0.16399663686752305 -0.82045578956604 0.5476837158203125
vn 0.5687355399131774 0.5695550441741943 0.5934196710586549
vn 0.4322351217269899 -0.5406053066253662 -0.7217469811439513
vn 0.09764559566974645 -0.9742112159729004 -0.2034153044223785
vn 0.16399663686752305 -0.82045578956604 0.5476837158203125
vn 0.09764559566974645 -0.9742112159729004 -0.2034153044223785
vn 0.3469749093055724 -0.8654431700706482 0.3614090681076051
vn 0.16399663686752305 -0.82045578956604 0.5476837158203125
vn 0.09764559566974645 -0.9742112159729004 -0.2034153044223785
vn 0.2268178462982179 0.7919071316719055 -0.5669538974761962
vn 0.3469749093055724 -0.8654431700706482 0.3614090681076051
vn 0.2268178462982179 0.7919071316719055 -0.5669538974761962
vn 0.06726306676864616 0.9393635392189026 0.3362615406513214
vn 0.3469749093055724 -0.8654431700706482 0.3614090681076051
vn 0.2268178462982179 0.7919071316719055 -0.5669538974761962
vn -0.3449232578277586 0.6898465156555176 -0.6365059018135072
vn 0.06726306676864616 0.9393635392189026 0.3362615406513214
vn -0.3449232578277586 0.6898465156555176 -0.6365059018135072
vn -0.6898465156555177 0.3449232578277588 0.6365059018135069
vn 0.06726306676864616 0.9393635392189026 0.3362615406513214
vn -0.3449232578277586 0.6898465156555176 -0.6365059018135072
vn -0.7359184622764586 -0.36795923113822937 -0.5683572888374331
vn -0.6898465156555177 0.3449232578277588 0.6365059018135069
vn -0.7359184622764586 -0.36795923113822937 -0.5683572888374331
vn -0.36795923113822954 -0.7359184622764587 0.5683572888374328
vn -0.6898465156555177 0.3449232578277588 0.6365059018135069
vn -0.7359184622764586 -0.36795923113822937 -0.5683572888374331
vn 0.06953840702772146 -0.9767533540725708 -0.2027740031480789
vn -0.36795923113822954 -0.7359184622764587 0.5683572888374328
vn 0.06953840702772146 -0.9767533540725708 -0.2027740031480789
vn 0.2543547749519347 -0.8931822180747986 0.3708492517471314
vn -0.36795923113822954 -0.7359184622764587 0.5683572888374328
f 1/1/1 2/2/2 3/3/3
f 4/4/4 5/5/5 6/6/6
f 7/7/7 8/8/8 9/9/9
f 10/10/10 11/11/11 12/12/12
f 13/13/13 14/14/14 15/15/15
f 16/16/16 17/17/17 18/18/18
f 19/19/19 20/20/20 21/21/21
f 22/22/22 23/23/23 24/24/24
f 25/25/25 26/26/26 27/27/27
f 28/28/28 29/29/29 30/30/30
f 31/31/31 32/32/32 33/33/33
f 34/34/34 35/35/35 36/36/36
f 37/37/37 38/38/38 39/39/39
f 40/40/40 41/41/41 42/42/42
f 43/43/43 44/44/44 45/45/45
f 46/46/46 47/47/47 48/48/48
f 49/49/49 50/50/50 51/51/51
f 52/52/52 53/53/53 54/54/54
f 55/55/55 56/56/56 57/57/57
f 58/58/58 59/59/59 60/60/60
f 61/61/61 62/62/62 63/63/63
f 64/64/64 65/65/65 66/66/66
f 67/67/67 68/68/68 69/69/69
f 70/70/70 71/71/71 72/72/72
f 73/73/73 74/74/74 75/75/75
f 76/76/76 77/77/77 78/78/78
f 79/79/79 80/80/80 81/81/81
f 82/82/82 83/83/83 84/84/84
f 85/85/85 86/86/86 87/87/87
f 88/88/88 89/89/89 90/90/90
f 91/91/91 92/92/92 93/93/93
f 94/94/94 95/95/95 96/96/96
f 97/97/97 98/98/98 99/99/99
f 100/100/100 101/101/101 102/102/102
f 103/103/103 104/104/104 105/105/105
f 106/106/106 107/107/107 108/108/108
f 109/109/109 110/110/110 111/111/111
f 112/112/112 113/113/113 114/114/114
f 115/115/115 116/116/116 117/117/117
f 118/118/118 119/119/119 120/120/120
f 121/121/121 122/122/122 123/123/123
f 124/124/124 125/125/125 126/126/126
f 127/127/127 128/128/128 129/129/129
f 130/130/130 131/131/131 132/132/132
