o 
v -3.125999927520752 6.240000009536743 -4.999999999999999
v -3.125999927520752 0 -4.999999999999999
v -7.289999961853027 0 -5
v 7.289999961853027 0 -4.9999999999999964
v 3.12600040435791 0 -4.999999999999997
v 3.12600040435791 6.240000009536743 -4.999999999999997
v 3.12600040435791 14.579999208450317 -4.999999999999997
v 7.289999961853027 14.579999208450317 -4.9999999999999964
v 7.289999961853027 0 -4.9999999999999964
v -7.289999961853027 14.579999208450317 -5
v -3.125999927520752 14.579999208450317 -4.999999999999999
v -3.125999927520752 8.32800030708313 -4.999999999999999
v -3.125999927520752 6.240000009536743 -4.999999999999999
v -7.289999961853027 0 -5
v -7.289999961853027 14.579999208450317 -5
v 3.12600040435791 8.32800030708313 -4.999999999999997
v 3.12600040435791 14.579999208450317 -4.999999999999997
v 7.289999961853027 0 -4.9999999999999964
v -3.125999927520752 6.240000009536743 -4.999999999999999
v -7.289999961853027 14.579999208450317 -5
v -3.125999927520752 8.32800030708313 -4.999999999999999
v 3.12600040435791 8.32800030708313 -4.999999999999997
v 7.289999961853027 0 -4.9999999999999964
v 3.12600040435791 6.240000009536743 -4.999999999999997
v -3.125999927520752 6.240000009536743 -4.999999999999999
v -3.125999927520752 8.32800030708313 -4.999999999999999
v 3.12600040435791 8.32800030708313 -4.999999999999997
v 3.12600040435791 8.32800030708313 -4.999999999999997
v 3.12600040435791 6.240000009536743 -4.999999999999997
v -3.125999927520752 6.240000009536743 -4.999999999999999
v -7.289999961853028 0 0
v -3.125999927520753 0 8.881784197001252e-16
v -3.125999927520753 6.240000009536743 8.881784197001252e-16
v 3.1260004043579084 6.240000009536743 2.6645352591003757e-15
v 3.1260004043579084 0 2.6645352591003757e-15
v 7.289999961853026 0 3.552713678800501e-15
v 7.289999961853026 0 3.552713678800501e-15
v 7.289999961853026 14.579999208450317 3.552713678800501e-15
v 3.1260004043579084 14.579999208450317 2.6645352591003757e-15
v -3.125999927520753 8.32800030708313 8.881784197001252e-16
v -3.125999927520753 14.579999208450317 8.881784197001252e-16
v -7.289999961853028 14.579999208450317 0
v -7.289999961853028 14.579999208450317 0
v -7.289999961853028 0 0
v -3.125999927520753 6.240000009536743 8.881784197001252e-16
v 7.289999961853026 0 3.552713678800501e-15
v 3.1260004043579084 14.579999208450317 2.6645352591003757e-15
v 3.1260004043579084 8.32800030708313 2.6645352591003757e-15
v -3.125999927520753 8.32800030708313 8.881784197001252e-16
v -7.289999961853028 14.579999208450317 0
v -3.125999927520753 6.240000009536743 8.881784197001252e-16
v 3.1260004043579084 6.240000009536743 2.6645352591003757e-15
v 7.289999961853026 0 3.552713678800501e-15
v 3.1260004043579084 8.32800030708313 2.6645352591003757e-15
v 3.1260004043579084 8.32800030708313 2.6645352591003757e-15
v -3.125999927520753 8.32800030708313 8.881784197001252e-16
v -3.125999927520753 6.240000009536743 8.881784197001252e-16
v -3.125999927520753 6.240000009536743 8.881784197001252e-16
v 3.1260004043579084 6.240000009536743 2.6645352591003757e-15
v 3.1260004043579084 8.32800030708313 2.6645352591003757e-15
v -3.125999927520752 0 -4.999999999999999
v -3.125999927520752 6.240000009536743 -4.999999999999999
v -3.125999927520753 0 8.881784197001252e-16
v -3.125999927520752 6.240000009536743 -4.999999999999999
v -3.125999927520753 6.240000009536743 8.881784197001252e-16
v -3.125999927520753 0 8.881784197001252e-16
v -3.125999927520752 6.240000009536743 -4.999999999999999
v 3.12600040435791 6.240000009536743 -4.999999999999997
v -3.125999927520753 6.240000009536743 8.881784197001252e-16
v 3.12600040435791 6.240000009536743 -4.999999999999997
v 3.1260004043579084 6.240000009536743 2.6645352591003757e-15
v -3.125999927520753 6.240000009536743 8.881784197001252e-16
v 3.12600040435791 6.240000009536743 -4.999999999999997
v 3.12600040435791 0 -4.999999999999997
v 3.1260004043579084 6.240000009536743 2.6645352591003757e-15
v 3.12600040435791 0 -4.999999999999997
v 3.1260004043579084 0 2.6645352591003757e-15
v 3.1260004043579084 6.240000009536743 2.6645352591003757e-15
v 3.12600040435791 0 -4.999999999999997
v 7.289999961853027 0 -4.9999999999999964
v 3.1260004043579084 0 2.6645352591003757e-15
v 7.289999961853027 0 -4.9999999999999964
v 7.289999961853026 0 3.552713678800501e-15
v 3.1260004043579084 0 2.6645352591003757e-15
v 7.289999961853027 0 -4.9999999999999964
v 7.289999961853027 14.579999208450317 -4.9999999999999964
v 7.289999961853026 0 3.552713678800501e-15
v 7.289999961853027 14.579999208450317 -4.9999999999999964
v 7.289999961853026 14.579999208450317 3.552713678800501e-15
v 7.289999961853026 0 3.552713678800501e-15
v 7.289999961853027 14.579999208450317 -4.9999999999999964
v 3.12600040435791 14.579999208450317 -4.999999999999997
v 7.289999961853026 14.579999208450317 3.552713678800501e-15
v 3.12600040435791 14.579999208450317 -4.999999999999997
v 3.1260004043579084 14.579999208450317 2.6645352591003757e-15
v 7.289999961853026 14.579999208450317 3.552713678800501e-15
v 3.12600040435791 14.579999208450317 -4.999999999999997
v 3.12600040435791 8.32800030708313 -4.999999999999997
v 3.1260004043579084 14.579999208450317 2.6645352591003757e-15
v 3.12600040435791 8.32800030708313 -4.999999999999997
v 3.1260004043579084 8.32800030708313 2.6645352591003757e-15
v 3.1260004043579084 14.579999208450317 2.6645352591003757e-15
v 3.12600040435791 8.32800030708313 -4.999999999999997
v -3.125999927520752 8.32800030708313 -4.999999999999999
v 3.1260004043579084 8.32800030708313 2.6645352591003757e-15
v -3.125999927520752 8.32800030708313 -4.999999999999999
v -3.125999927520753 8.32800030708313 8.881784197001252e-16
v 3.1260004043579084 8.32800030708313 2.6645352591003757e-15
v -3.125999927520752 8.32800030708313 -4.999999999999999
v -3.125999927520752 14.579999208450317 -4.999999999999999
v -3.125999927520753 8.32800030708313 8.881784197001252e-16
v -3.125999927520752 14.579999208450317 -4.999999999999999
v -3.125999927520753 14.579999208450317 8.881784197001252e-16
v -3.125999927520753 8.32800030708313 8.881784197001252e-16
v -3.125999927520752 14.579999208450317 -4.999999999999999
v -7.289999961853027 14.579999208450317 -5
v -3.125999927520753 14.579999208450317 8.881784197001252e-16
v -7.289999961853027 14.579999208450317 -5
v -7.289999961853028 14.579999208450317 0
v -3.125999927520753 14.579999208450317 8.881784197001252e-16
v -7.289999961853027 14.579999208450317 -5
v -7.289999961853027 0 -5
v -7.289999961853028 14.579999208450317 0
v -7.289999961853027 0 -5
v -7.289999961853028 0 0
v -7.289999961853028 14.579999208450317 0
v -7.289999961853027 0 -5
v -3.125999927520752 0 -4.999999999999999
v -7.289999961853028 0 0
v -3.125999927520752 0 -4.999999999999999
v -3.125999927520753 0 8.881784197001252e-16
v -7.289999961853028 0 0
vt 4.164000034332275 8.32800006866455
vt 4.164000034332275 2.0880000591278076
vt 0 2.0880000591278076
vt 14.579999923706055 2.0880000591278076
vt 10.416000366210938 2.0880000591278076
vt 10.416000366210938 8.32800006866455
vt 10.416000366210938 16.667999267578125
vt 14.579999923706055 16.667999267578125
vt 14.579999923706055 2.0880000591278076
vt 0 16.667999267578125
vt 4.164000034332275 16.667999267578125
vt 4.164000034332275 10.416000366210938
vt 4.164000034332275 8.32800006866455
vt 0 2.0880000591278076
vt 0 16.667999267578125
vt 10.416000366210938 10.416000366210938
vt 10.416000366210938 16.667999267578125
vt 14.579999923706055 2.0880000591278076
vt 4.164000034332275 8.32800006866455
vt 0 16.667999267578125
vt 4.164000034332275 10.416000366210938
vt 10.416000366210938 10.416000366210938
vt 14.579999923706055 2.0880000591278076
vt 10.416000366210938 8.32800006866455
vt 4.164000034332275 8.32800006866455
vt 4.164000034332275 10.416000366210938
vt 10.416000366210938 10.416000366210938
vt 10.416000366210938 10.416000366210938
vt 10.416000366210938 8.32800006866455
vt 4.164000034332275 8.32800006866455
vt 0 2.0880000591278076
vt 4.164000034332275 2.0880000591278076
vt 4.164000034332275 8.32800006866455
vt 10.416000366210938 8.32800006866455
vt 10.416000366210938 2.0880000591278076
vt 14.579999923706055 2.0880000591278076
vt 14.579999923706055 2.0880000591278076
vt 14.579999923706055 16.667999267578125
vt 10.416000366210938 16.667999267578125
vt 4.164000034332275 10.416000366210938
vt 4.164000034332275 16.667999267578125
vt 0 16.667999267578125
vt 0 16.667999267578125
vt 0 2.0880000591278076
vt 4.164000034332275 8.32800006866455
vt 14.579999923706055 2.0880000591278076
vt 10.416000366210938 16.667999267578125
vt 10.416000366210938 10.416000366210938
vt 4.164000034332275 10.416000366210938
vt 0 16.667999267578125
vt 4.164000034332275 8.32800006866455
vt 10.416000366210938 8.32800006866455
vt 14.579999923706055 2.0880000591278076
vt 10.416000366210938 10.416000366210938
vt 10.416000366210938 10.416000366210938
vt 4.164000034332275 10.416000366210938
vt 4.164000034332275 8.32800006866455
vt 4.164000034332275 8.32800006866455
vt 10.416000366210938 8.32800006866455
vt 10.416000366210938 10.416000366210938
vt 2.0880000591278076 1
vt 8.32800006866455 1
vt 2.0880000591278076 -4
vt 8.32800006866455 1
vt 8.32800006866455 -4
vt 2.0880000591278076 -4
vt 4.164000034332275 1
vt 10.416000366210938 1
vt 4.164000034332275 -4
vt 10.416000366210938 1
vt 10.416000366210938 -4
vt 4.164000034332275 -4
vt 8.32800006866455 1
vt 2.0880000591278076 1
vt 8.32800006866455 -4
vt 2.0880000591278076 1
vt 2.0880000591278076 -4
vt 8.32800006866455 -4
vt 10.416000366210938 1
vt 14.579999923706055 1
vt 10.416000366210938 -4
vt 14.579999923706055 1
vt 14.579999923706055 -4
vt 10.416000366210938 -4
vt 2.0880000591278076 1
vt 16.667999267578125 1
vt 2.0880000591278076 -4
vt 16.667999267578125 1
vt 16.667999267578125 -4
vt 2.0880000591278076 -4
vt 14.579999923706055 1
vt 10.416000366210938 1
vt 14.579999923706055 -4
vt 10.416000366210938 1
vt 10.416000366210938 -4
vt 14.579999923706055 -4
vt 16.667999267578125 1
vt 10.416000366210938 1
vt 16.667999267578125 -4
vt 10.416000366210938 1
vt 10.416000366210938 -4
vt 16.667999267578125 -4
vt 10.416000366210938 1
vt 4.164000034332275 1
vt 10.416000366210938 -4
vt 4.164000034332275 1
vt 4.164000034332275 -4
vt 10.416000366210938 -4
vt 10.416000366210938 1
vt 16.667999267578125 1
vt 10.416000366210938 -4
vt 16.667999267578125 1
vt 16.667999267578125 -4
vt 10.416000366210938 -4
vt 4.164000034332275 1
vt 0 1
vt 4.164000034332275 -4
vt 0 1
vt 0 -4
vt 4.164000034332275 -4
vt 16.667999267578125 1
vt 2.0880000591278076 1
vt 16.667999267578125 -4
vt 2.0880000591278076 1
vt 2.0880000591278076 -4
vt 16.667999267578125 -4
vt 0 1
vt 4.164000034332275 1
vt 0 -4
vt 4.164000034332275 1
vt 4.164000034332275 -4
vt 0 -4
vn 0.44534483551979087 -0.22310063242912292 -0.8671182394027709
vn 0.5364607572555543 -0.7159687876701355 -0.4467645287513732
vn -0.8531270623207091 -0.12182513624429703 -0.5072798728942873
vn 0.4938355684280398 -0.2820756137371063 -0.8225325345993041
vn -0.8822604417800902 -0.29436957836151123 -0.36737322807312034
vn -0.3687075078487395 -0.7388331294059753 -0.5640748143196107
vn -0.3089802265167234 0.4115782678127289 -0.857399880886078
vn 0.9152458906173707 0.13069561123847961 -0.38110840320587136
vn 0.4938355684280398 -0.2820756137371063 -0.8225325345993041
vn -0.5735203027725218 0.3275910019874573 -0.7508385777473451
vn 0.8824070692062379 0.29385340213775635 -0.3674342930316923
vn 0.36919698119163524 0.7383939623832703 -0.56432968378067
vn 0.44534483551979087 -0.22310063242912292 -0.8671182394027709
vn -0.8531270623207091 -0.12182513624429703 -0.5072798728942873
vn -0.5735203027725218 0.3275910019874573 -0.7508385777473451
vn -0.674681782722473 0.3373408913612366 -0.6565101742744447
vn -0.3089802265167234 0.4115782678127289 -0.857399880886078
vn 0.4938355684280398 -0.2820756137371063 -0.8225325345993041
vn 0.44534483551979087 -0.22310063242912292 -0.8671182394027709
vn -0.5735203027725218 0.3275910019874573 -0.7508385777473451
vn 0.36919698119163524 0.7383939623832703 -0.56432968378067
vn -0.674681782722473 0.3373408913612366 -0.6565101742744447
vn 0.4938355684280398 -0.2820756137371063 -0.8225325345993041
vn -0.3687075078487395 -0.7388331294059753 -0.5640748143196107
vn 0.44534483551979087 -0.22310063242912292 -0.8671182394027709
vn 0.36919698119163524 0.7383939623832703 -0.56432968378067
vn -0.674681782722473 0.3373408913612366 -0.6565101742744447
vn -0.674681782722473 0.3373408913612366 -0.6565101742744447
vn -0.3687075078487395 -0.7388331294059753 -0.5640748143196107
vn 0.44534483551979087 -0.22310063242912292 -0.8671182394027709
vn -0.6040650606155398 -0.3450379967689514 0.7183691263198851
vn 0.8822604417800902 -0.29436957836151123 0.36737322807312034
vn 0.22260868549346902 -0.4460735619068146 0.866870105266571
vn -0.7379946112632753 -0.3697068989276886 0.5645181536674497
vn -0.5364607572555543 -0.7159687876701355 0.4467645287513732
vn 0.7638380527496337 -0.10907481610774994 0.6361243128776553
vn 0.7638380527496337 -0.10907481610774994 0.6361243128776553
vn 0.7036293148994445 0.40190842747688293 0.5859824419021609
vn -0.5739205479621889 0.19112324714660645 0.7962958812713622
vn 0.7383939623832702 0.36919698119163513 0.5643296837806704
vn 0.536988854408264 0.7152979969978333 0.4472043216228486
vn -0.8307767510414125 0.11863355338573456 0.5438162088394163
vn -0.8307767510414125 0.11863355338573456 0.5438162088394163
vn -0.6040650606155398 -0.3450379967689514 0.7183691263198851
vn 0.22260868549346902 -0.4460735619068146 0.866870105266571
vn 0.7638380527496337 -0.10907481610774994 0.6361243128776553
vn -0.5739205479621889 0.19112324714660645 0.7962958812713622
vn -0.33734089136123674 0.6746817827224731 0.6565101742744445
vn 0.7383939623832702 0.36919698119163513 0.5643296837806704
vn -0.8307767510414125 0.11863355338573456 0.5438162088394163
vn 0.22260868549346902 -0.4460735619068146 0.866870105266571
vn -0.7379946112632753 -0.3697068989276886 0.5645181536674497
vn 0.7638380527496337 -0.10907481610774994 0.6361243128776553
vn -0.33734089136123674 0.6746817827224731 0.6565101742744445
vn -0.33734089136123674 0.6746817827224731 0.6565101742744445
vn 0.7383939623832702 0.36919698119163513 0.5643296837806704
vn 0.22260868549346902 -0.4460735619068146 0.866870105266571
vn 0.22260868549346902 -0.4460735619068146 0.866870105266571
vn -0.7379946112632753 -0.3697068989276886 0.5645181536674497
vn -0.33734089136123674 0.6746817827224731 0.6565101742744445
vn 0.5364607572555543 -0.7159687876701355 -0.4467645287513732
vn 0.44534483551979087 -0.22310063242912292 -0.8671182394027709
vn 0.8822604417800902 -0.29436957836151123 0.36737322807312034
vn 0.44534483551979087 -0.22310063242912292 -0.8671182394027709
vn 0.22260868549346902 -0.4460735619068146 0.866870105266571
vn 0.8822604417800902 -0.29436957836151123 0.36737322807312034
vn 0.44534483551979087 -0.22310063242912292 -0.8671182394027709
vn -0.3687075078487395 -0.7388331294059753 -0.5640748143196107
vn 0.22260868549346902 -0.4460735619068146 0.866870105266571
vn -0.3687075078487395 -0.7388331294059753 -0.5640748143196107
vn -0.7379946112632753 -0.3697068989276886 0.5645181536674497
vn 0.22260868549346902 -0.4460735619068146 0.866870105266571
vn -0.3687075078487395 -0.7388331294059753 -0.5640748143196107
vn -0.8822604417800902 -0.29436957836151123 -0.36737322807312034
vn -0.7379946112632753 -0.3697068989276886 0.5645181536674497
vn -0.8822604417800902 -0.29436957836151123 -0.36737322807312034
vn -0.5364607572555543 -0.7159687876701355 0.4467645287513732
vn -0.7379946112632753 -0.3697068989276886 0.5645181536674497
vn -0.8822604417800902 -0.29436957836151123 -0.36737322807312034
vn 0.4938355684280398 -0.2820756137371063 -0.8225325345993041
vn -0.5364607572555543 -0.7159687876701355 0.4467645287513732
vn 0.4938355684280398 -0.2820756137371063 -0.8225325345993041
vn 0.7638380527496337 -0.10907481610774994 0.6361243128776553
vn -0.5364607572555543 -0.7159687876701355 0.4467645287513732
vn 0.4938355684280398 -0.2820756137371063 -0.8225325345993041
vn 0.9152458906173707 0.13069561123847961 -0.38110840320587136
vn 0.7638380527496337 -0.10907481610774994 0.6361243128776553
vn 0.9152458906173707 0.13069561123847961 -0.38110840320587136
vn 0.7036293148994445 0.40190842747688293 0.5859824419021609
vn 0.7638380527496337 -0.10907481610774994 0.6361243128776553
vn 0.9152458906173707 0.13069561123847961 -0.38110840320587136
vn -0.3089802265167234 0.4115782678127289 -0.857399880886078
vn 0.7036293148994445 0.40190842747688293 0.5859824419021609
vn -0.3089802265167234 0.4115782678127289 -0.857399880886078
vn -0.5739205479621889 0.19112324714660645 0.7962958812713622
vn 0.7036293148994445 0.40190842747688293 0.5859824419021609
vn -0.3089802265167234 0.4115782678127289 -0.857399880886078
vn -0.674681782722473 0.3373408913612366 -0.6565101742744447
vn -0.5739205479621889 0.19112324714660645 0.7962958812713622
vn -0.674681782722473 0.3373408913612366 -0.6565101742744447
vn -0.33734089136123674 0.6746817827224731 0.6565101742744445
vn -0.5739205479621889 0.19112324714660645 0.7962958812713622
vn -0.674681782722473 0.3373408913612366 -0.6565101742744447
vn 0.36919698119163524 0.7383939623832703 -0.56432968378067
vn -0.33734089136123674 0.6746817827224731 0.6565101742744445
vn 0.36919698119163524 0.7383939623832703 -0.56432968378067
vn 0.7383939623832702 0.36919698119163513 0.5643296837806704
vn -0.33734089136123674 0.6746817827224731 0.6565101742744445
vn 0.36919698119163524 0.7383939623832703 -0.56432968378067
vn 0.8824070692062379 0.29385340213775635 -0.3674342930316923
vn 0.7383939623832702 0.36919698119163513 0.5643296837806704
vn 0.8824070692062379 0.29385340213775635 -0.3674342930316923
vn 0.536988854408264 0.7152979969978333 0.4472043216228486
vn 0.7383939623832702 0.36919698119163513 0.5643296837806704
vn 0.8824070692062379 0.29385340213775635 -0.3674342930316923
vn -0.5735203027725218 0.3275910019874573 -0.7508385777473451
vn 0.536988854408264 0.7152979969978333 0.4472043216228486
vn -0.5735203027725218 0.3275910019874573 -0.7508385777473451
vn -0.8307767510414125 0.11863355338573456 0.5438162088394163
vn 0.536988854408264 0.7152979969978333 0.4472043216228486
vn -0.5735203027725218 0.3275910019874573 -0.7508385777473451
vn -0.8531270623207091 -0.12182513624429703 -0.5072798728942873
vn -0.8307767510414125 0.11863355338573456 0.5438162088394163
vn -0.8531270623207091 -0.12182513624429703 -0.5072798728942873
vn -0.6040650606155398 -0.3450379967689514 0.7183691263198851
vn -0.8307767510414125 0.11863355338573456 0.5438162088394163
vn -0.8531270623207091 -0.12182513624429703 -0.5072798728942873
vn 0.5364607572555543 -0.7159687876701355 -0.4467645287513732
vn -0.6040650606155398 -0.3450379967689514 0.7183691263198851
vn 0.5364607572555543 -0.7159687876701355 -0.4467645287513732
vn 0.8822604417800902 -0.29436957836151123 0.36737322807312034
vn -0.6040650606155398 -0.3450379967689514 0.7183691263198851
f 1/1/1 2/2/2 3/3/3
f 4/4/4 5/5/5 6/6/6
f 7/7/7 8/8/8 9/9/9
f 10/10/10 11/11/11 12/12/12
f 13/13/13 14/14/14 15/15/15
f 16/16/16 17/17/17 18/18/18
f 19/19/19 20/20/20 21/21/21
f 22/22/22 23/23/23 24/24/24
f 25/25/25 26/26/26 27/27/27
f 28/28/28 29/29/29 30/30/30
f 31/31/31 32/32/32 33/33/33
f 34/34/34 35/35/35 36/36/36
f 37/37/37 38/38/38 39/39/39
f 40/40/40 41/41/41 42/42/42
f 43/43/43 44/44/44 45/45/45
f 46/46/46 47/47/47 48/48/48
f 49/49/49 50/50/50 51/51/51
f 52/52/52 53/53/53 54/54/54
f 55/55/55 56/56/56 57/57/57
f 58/58/58 59/59/59 60/60/60
f 61/61/61 62/62/62 63/63/63
f 64/64/64 65/65/65 66/66/66
f 67/67/67 68/68/68 69/69/69
f 70/70/70 71/71/71 72/72/72
f 73/73/73 74/74/74 75/75/75
f 76/76/76 77/77/77 78/78/78
f 79/79/79 80/80/80 81/81/81
f 82/82/82 83/83/83 84/84/84
f 85/85/85 86/86/86 87/87/87
f 88/88/88 89/89/89 90/90/90
f 91/91/91 92/92/92 93/93/93
f 94/94/94 95/95/95 96/96/96
f 97/97/97 98/98/98 99/99/99
f 100/100/100 101/101/101 102/102/102
f 103/103/103 104/104/104 105/105/105
f 106/106/106 107/107/107 108/108/108
f 109/109/109 110/110/110 111/111/111
f 112/112/112 113/113/113 114/114/114
f 115/115/115 116/116/116 117/117/117
f 118/118/118 119/119/119 120/120/120
f 121/121/121 122/122/122 123/123/123
f 124/124/124 125/125/125 126/126/126
f 127/127/127 128/128/128 129/129/129
f 130/130/130 131/131/131 132/132/132
