o 
v 8.33400011062622 2.0759999752044678 -4.9999999999999964
v 8.33400011062622 0 -4.9999999999999964
v -4.157999753952026 0 -4.999999999999999
v -4.157999753952026 14.579999208450317 -4.999999999999999
v 0.006000041961669922 14.579999208450317 -4.999999999999998
v 0.006000041961669922 2.0759999752044678 -4.999999999999998
v 0.006000041961669922 2.0759999752044678 -4.999999999999998
v 8.33400011062622 2.0759999752044678 -4.9999999999999964
v -4.157999753952026 0 -4.999999999999999
v -4.157999753952026 0 -4.999999999999999
v -4.157999753952026 14.579999208450317 -4.999999999999999
v 0.006000041961669922 2.0759999752044678 -4.999999999999998
v -4.157999753952028 0 8.881784197001252e-16
v 8.334000110626219 0 3.552713678800501e-15
v 8.334000110626219 2.0759999752044678 3.552713678800501e-15
v 0.006000041961669034 2.0759999752044678 1.7763568394002505e-15
v 0.006000041961669034 14.579999208450317 1.7763568394002505e-15
v -4.157999753952028 14.579999208450317 8.881784197001252e-16
v -4.157999753952028 0 8.881784197001252e-16
v 8.334000110626219 2.0759999752044678 3.552713678800501e-15
v 0.006000041961669034 2.0759999752044678 1.7763568394002505e-15
v 0.006000041961669034 2.0759999752044678 1.7763568394002505e-15
v -4.157999753952028 14.579999208450317 8.881784197001252e-16
v -4.157999753952028 0 8.881784197001252e-16
v 8.33400011062622 0 -4.9999999999999964
v 8.33400011062622 2.0759999752044678 -4.9999999999999964
v 8.334000110626219 0 3.552713678800501e-15
v 8.33400011062622 2.0759999752044678 -4.9999999999999964
v 8.334000110626219 2.0759999752044678 3.552713678800501e-15
v 8.334000110626219 0 3.552713678800501e-15
v 8.33400011062622 2.0759999752044678 -4.9999999999999964
v 0.006000041961669922 2.0759999752044678 -4.999999999999998
v 8.334000110626219 2.0759999752044678 3.552713678800501e-15
v 0.006000041961669922 2.0759999752044678 -4.999999999999998
v 0.006000041961669034 2.0759999752044678 1.7763568394002505e-15
v 8.334000110626219 2.0759999752044678 3.552713678800501e-15
v 0.006000041961669922 2.0759999752044678 -4.999999999999998
v 0.006000041961669922 14.579999208450317 -4.999999999999998
v 0.006000041961669034 2.0759999752044678 1.7763568394002505e-15
v 0.006000041961669922 14.579999208450317 -4.999999999999998
v 0.006000041961669034 14.579999208450317 1.7763568394002505e-15
v 0.006000041961669034 2.0759999752044678 1.7763568394002505e-15
v 0.006000041961669922 14.579999208450317 -4.999999999999998
v -4.157999753952026 14.579999208450317 -4.999999999999999
v 0.006000041961669034 14.579999208450317 1.7763568394002505e-15
v -4.157999753952026 14.579999208450317 -4.999999999999999
v -4.157999753952028 14.579999208450317 8.881784197001252e-16
v 0.006000041961669034 14.579999208450317 1.7763568394002505e-15
v -4.157999753952026 14.579999208450317 -4.999999999999999
v -4.157999753952026 0 -4.999999999999999
v -4.157999753952028 14.579999208450317 8.881784197001252e-16
v -4.157999753952026 0 -4.999999999999999
v -4.157999753952028 0 8.881784197001252e-16
v -4.157999753952028 14.579999208450317 8.881784197001252e-16
v -4.157999753952026 0 -4.999999999999999
v 8.33400011062622 0 -4.9999999999999964
v -4.157999753952028 0 8.881784197001252e-16
v 8.33400011062622 0 -4.9999999999999964
v 8.334000110626219 0 3.552713678800501e-15
v -4.157999753952028 0 8.881784197001252e-16
vt 14.579999923706055 4.164000034332275
vt 14.579999923706055 2.0880000591278076
vt 2.0880000591278076 2.0880000591278076
vt 2.0880000591278076 16.667999267578125
vt 6.251999855041504 16.667999267578125
vt 6.251999855041504 4.164000034332275
vt 6.251999855041504 4.164000034332275
vt 14.579999923706055 4.164000034332275
vt 2.0880000591278076 2.0880000591278076
vt 2.0880000591278076 2.0880000591278076
vt 2.0880000591278076 16.667999267578125
vt 6.251999855041504 4.164000034332275
vt 2.0880000591278076 2.0880000591278076
vt 14.579999923706055 2.0880000591278076
vt 14.579999923706055 4.164000034332275
vt 6.251999855041504 4.164000034332275
vt 6.251999855041504 16.667999267578125
vt 2.0880000591278076 16.667999267578125
vt 2.0880000591278076 2.0880000591278076
vt 14.579999923706055 4.164000034332275
vt 6.251999855041504 4.164000034332275
vt 6.251999855041504 4.164000034332275
vt 2.0880000591278076 16.667999267578125
vt 2.0880000591278076 2.0880000591278076
vt 2.0880000591278076 1
vt 4.164000034332275 1
vt 2.0880000591278076 -4
vt 4.164000034332275 1
vt 4.164000034332275 -4
vt 2.0880000591278076 -4
vt 14.579999923706055 1
vt 6.251999855041504 1
vt 14.579999923706055 -4
vt 6.251999855041504 1
vt 6.251999855041504 -4
vt 14.579999923706055 -4
vt 4.164000034332275 1
vt 16.667999267578125 1
vt 4.164000034332275 -4
vt 16.667999267578125 1
vt 16.667999267578125 -4
vt 4.164000034332275 -4
vt 6.251999855041504 1
vt 2.0880000591278076 1
vt 6.251999855041504 -4
vt 2.0880000591278076 1
vt 2.0880000591278076 -4
vt 6.251999855041504 -4
vt 16.667999267578125 1
vt 2.0880000591278076 1
vt 16.667999267578125 -4
vt 2.0880000591278076 1
vt 2.0880000591278076 -4
vt 16.667999267578125 -4
vt 2.0880000591278076 1
vt 14.579999923706055 1
vt 2.0880000591278076 -4
vt 14.579999923706055 1
vt 14.579999923706055 -4
vt 2.0880000591278076 -4
vn 0.32689726352691667 0.6556841135025024 -0.6806001067161559
vn 0.08109055459499365 -0.9758990406990051 -0.20259663462638852
vn -0.768849492073059 -0.3293713331222534 -0.5480738878250124
vn -0.5185083746910093 0.29616856575012207 -0.8021429181098939
vn 0.9124476909637452 0.15192867815494537 -0.37994322180747964
vn 0.37522891163826005 0.49982506036758423 -0.7806267738342284
vn 0.37522891163826005 0.49982506036758423 -0.7806267738342284
vn 0.32689726352691667 0.6556841135025024 -0.6806001067161559
vn -0.768849492073059 -0.3293713331222534 -0.5480738878250124
vn -0.768849492073059 -0.3293713331222534 -0.5480738878250124
vn -0.5185083746910093 0.29616856575012207 -0.8021429181098939
vn 0.37522891163826005 0.49982506036758423 -0.7806267738342284
vn -0.4093079268932344 -0.7013819813728333 0.5835497975349425
vn 0.29345080256462086 -0.8828967213630676 0.3665787279605866
vn 0.10995693504810322 0.8821978569030762 0.45786067843437195
vn 0.6752880215644834 0.22487998008728027 0.7024351358413697
vn 0.6840419769287108 0.45559030771255493 0.5696701407432558
vn -0.7859873771667482 0.11223770678043365 0.6079691648483274
vn -0.4093079268932344 -0.7013819813728333 0.5835497975349425
vn 0.10995693504810322 0.8821978569030762 0.45786067843437195
vn 0.6752880215644834 0.22487998008728027 0.7024351358413697
vn 0.6752880215644834 0.22487998008728027 0.7024351358413697
vn -0.7859873771667482 0.11223770678043365 0.6079691648483274
vn -0.4093079268932344 -0.7013819813728333 0.5835497975349425
vn 0.08109055459499365 -0.9758990406990051 -0.20259663462638852
vn 0.32689726352691667 0.6556841135025024 -0.6806001067161559
vn 0.29345080256462086 -0.8828967213630676 0.3665787279605866
vn 0.32689726352691667 0.6556841135025024 -0.6806001067161559
vn 0.10995693504810322 0.8821978569030762 0.45786067843437195
vn 0.29345080256462086 -0.8828967213630676 0.3665787279605866
vn 0.32689726352691667 0.6556841135025024 -0.6806001067161559
vn 0.37522891163826005 0.49982506036758423 -0.7806267738342284
vn 0.10995693504810322 0.8821978569030762 0.45786067843437195
vn 0.37522891163826005 0.49982506036758423 -0.7806267738342284
vn 0.6752880215644834 0.22487998008728027 0.7024351358413697
vn 0.10995693504810322 0.8821978569030762 0.45786067843437195
vn 0.37522891163826005 0.49982506036758423 -0.7806267738342284
vn 0.9124476909637452 0.15192867815494537 -0.37994322180747964
vn 0.6752880215644834 0.22487998008728027 0.7024351358413697
vn 0.9124476909637452 0.15192867815494537 -0.37994322180747964
vn 0.6840419769287108 0.45559030771255493 0.5696701407432558
vn 0.6752880215644834 0.22487998008728027 0.7024351358413697
vn 0.9124476909637452 0.15192867815494537 -0.37994322180747964
vn -0.5185083746910093 0.29616856575012207 -0.8021429181098939
vn 0.6840419769287108 0.45559030771255493 0.5696701407432558
vn -0.5185083746910093 0.29616856575012207 -0.8021429181098939
vn -0.7859873771667482 0.11223770678043365 0.6079691648483274
vn 0.6840419769287108 0.45559030771255493 0.5696701407432558
vn -0.5185083746910093 0.29616856575012207 -0.8021429181098939
vn -0.768849492073059 -0.3293713331222534 -0.5480738878250124
vn -0.7859873771667482 0.11223770678043365 0.6079691648483274
vn -0.768849492073059 -0.3293713331222534 -0.5480738878250124
vn -0.4093079268932344 -0.7013819813728333 0.5835497975349425
vn -0.7859873771667482 0.11223770678043365 0.6079691648483274
vn -0.768849492073059 -0.3293713331222534 -0.5480738878250124
vn 0.08109055459499365 -0.9758990406990051 -0.20259663462638852
vn -0.4093079268932344 -0.7013819813728333 0.5835497975349425
vn 0.08109055459499365 -0.9758990406990051 -0.20259663462638852
vn 0.29345080256462086 -0.8828967213630676 0.3665787279605866
vn -0.4093079268932344 -0.7013819813728333 0.5835497975349425
f 1/1/1 2/2/2 3/3/3
f 4/4/4 5/5/5 6/6/6
f 7/7/7 8/8/8 9/9/9
f 10/10/10 11/11/11 12/12/12
f 13/13/13 14/14/14 15/15/15
f 16/16/16 17/17/17 18/18/18
f 19/19/19 20/20/20 21/21/21
f 22/22/22 23/23/23 24/24/24
f 25/25/25 26/26/26 27/27/27
f 28/28/28 29/29/29 30/30/30
f 31/31/31 32/32/32 33/33/33
f 34/34/34 35/35/35 36/36/36
f 37/37/37 38/38/38 39/39/39
f 40/40/40 41/41/41 42/42/42
f 43/43/43 44/44/44 45/45/45
f 46/46/46 47/47/47 48/48/48
f 49/49/49 50/50/50 51/51/51
f 52/52/52 53/53/53 54/54/54
f 55/55/55 56/56/56 57/57/57
f 58/58/58 59/59/59 60/60/60
